<!-- Generator: Adobe Illustrator 16.0.0, SVG Export Plug-In . SVG Version: 6.00 Build 0)  -->
<svg version="1.1" id="Layer_1" xmlns="http://www.w3.org/2000/svg" xmlns:xlink="http://www.w3.org/1999/xlink" x="0px" y="0px"
	 width="181px" height="40px" viewBox="165 44 181 40" enable-background="new 165 44 181 40"
	 xml:space="preserve">
<path fill="#00B7ED" d="M174.198,57.369l-8.546-0.016l-0.017,5.376l8.545,0.016l0.009-2.688c0,0,4.272,0.008,4.263,2.697
	l4.273,0.008C182.725,62.762,182.743,57.385,174.198,57.369z"/>
<path fill="#803591" d="M186.233,55.165l-2.817-6.229l-6.814,1.722l2.816,6.229l3.407-0.861c0,0,1.408,3.115-1.999,3.976
	l1.408,3.115C182.236,63.116,189.049,61.395,186.233,55.165z"/>
<path fill="#85C243" d="M175.206,65.652l-3.134,5.612l6.637,2.072l3.134-5.613l-3.318-1.035c0,0,1.568-2.807,4.886-1.771
	l1.567-2.806C184.978,62.111,178.341,60.04,175.206,65.652z"/>
<path fill="#FFAE1D" d="M184.487,68.492l6.737,3.999l4.474-4.21l-6.737-3.999l-2.236,2.104c0,0-3.369-1.999-1.133-4.104l-3.368-2
	C182.223,60.281,177.75,64.492,184.487,68.492z"/>
<path fill="#F52422" d="M190.71,63.27l7.318-3.253l-3.675-4.621l-7.318,3.252l1.837,2.311c0,0-3.66,1.626-5.497-0.685l-3.66,1.626
	C179.716,61.9,183.392,66.522,190.71,63.27z"/>
<text transform="matrix(1.3377 0 0 1 200.8154 68.3042)" font-family="'MicrosoftUighur'" font-size="20.756">BrainyQuote</text>
</svg>
