<?xml version="1.0" standalone="no"?>
<!DOCTYPE svg PUBLIC "-//W3C//DTD SVG 20010904//EN"
 "http://www.w3.org/TR/2001/REC-SVG-20010904/DTD/svg10.dtd">
<svg version="1.0" xmlns="http://www.w3.org/2000/svg"
 width="700.000000pt" height="700.000000pt" viewBox="0 0 700.000000 700.000000"
 preserveAspectRatio="xMidYMid meet">
<metadata>
Created by potrace 1.11, written by Peter Selinger 2001-2013
</metadata>
<g transform="translate(0.000000,700.000000) scale(0.100000,-0.100000)"
fill="#000000" stroke="none">
<path d="M3810 6990 c-48 -15 -1435 -482 -1437 -484 -1 -1 45 -141 103 -312
58 -170 141 -412 184 -539 43 -126 99 -291 124 -365 26 -74 49 -142 51 -150 8
-34 138 -406 144 -412 4 -4 166 47 360 112 195 66 360 120 367 120 28 0 71
-255 68 -410 -3 -204 -43 -340 -139 -475 -49 -69 -88 -107 -165 -158 l-53 -36
-24 32 c-51 72 -71 95 -148 173 -236 239 -550 391 -950 459 -187 33 -306 36
-1355 38 l-935 2 -3 -771 -2 -770 397 -2 c426 -1 1368 -3 1419 -2 l31 0 0 163
c1 89 2 263 2 386 l1 223 66 -7 c36 -3 73 -8 82 -10 9 -1 46 -8 82 -15 348
-66 604 -275 664 -542 32 -141 37 -127 -63 -202 -160 -119 -316 -293 -435
-485 -86 -139 -136 -244 -276 -581 -29 -69 -60 -143 -70 -165 -14 -32 -381
-904 -485 -1155 l-23 -54 27 -12 c69 -30 104 -45 211 -89 63 -26 126 -52 140
-58 14 -6 27 -11 30 -12 3 0 27 -11 54 -23 27 -12 50 -22 52 -22 2 0 164 -67
361 -149 435 -180 557 -230 559 -228 1 1 37 85 79 186 42 102 85 203 95 225
10 23 39 93 65 156 26 63 53 129 60 145 7 17 32 75 55 130 23 55 48 114 55
130 16 36 155 367 219 520 25 60 43 112 38 116 -4 4 -74 35 -157 69 -381 157
-540 223 -545 227 -8 7 57 119 120 207 50 70 82 105 178 197 40 38 157 107
208 123 19 6 23 0 35 -41 33 -119 103 -273 182 -398 96 -151 152 -219 307
-376 107 -107 252 -230 540 -455 93 -73 590 -464 739 -582 49 -38 203 -161
221 -175 8 -7 44 -35 80 -62 35 -28 76 -60 90 -72 32 -29 43 -29 66 3 10 14
24 31 30 38 5 6 84 103 174 216 89 113 176 221 192 240 16 19 32 40 36 45 19
25 207 261 212 265 3 3 39 48 80 100 41 52 79 100 85 106 5 6 21 25 35 44 14
18 40 49 58 70 17 21 32 41 32 44 0 10 -16 24 -90 81 -36 28 -71 55 -78 62 -7
7 -59 48 -115 92 -87 68 -240 188 -352 277 -16 13 -165 130 -330 260 -165 130
-341 269 -392 309 l-92 73 -213 -266 c-117 -147 -217 -273 -223 -280 -19 -24
-49 -52 -56 -52 -15 0 -194 201 -241 272 -66 97 -145 269 -133 289 2 3 28 3
58 -1 234 -26 558 36 856 162 165 70 223 102 1069 602 57 34 116 69 133 78 54
32 644 381 677 401 30 18 32 21 19 41 -18 28 -568 944 -587 978 -8 15 -55 94
-105 176 -84 140 -91 149 -110 137 -46 -29 -522 -310 -550 -324 -16 -9 -32
-18 -35 -21 -3 -3 -16 -11 -30 -19 -29 -16 -275 -162 -335 -198 -22 -13 -48
-26 -57 -30 -10 -3 -18 -9 -18 -14 0 -5 -4 -9 -9 -9 -5 0 -91 -49 -192 -109
-101 -59 -217 -127 -256 -150 -40 -23 -73 -44 -73 -46 0 -10 49 -96 150 -262
36 -60 70 -116 75 -125 6 -10 29 -49 52 -88 24 -38 52 -86 63 -105 11 -20 27
-47 36 -60 15 -23 15 -24 -36 -50 -49 -25 -199 -83 -230 -90 -8 -2 -33 -8 -55
-13 -67 -18 -136 -26 -230 -26 -76 0 -184 9 -192 17 -1 2 26 42 61 91 136 191
216 399 263 681 13 82 8 372 -8 488 -41 289 -42 294 -529 1717 -78 228 -155
456 -172 505 -16 50 -32 93 -36 96 -4 4 -18 3 -32 -1z"/>
</g>
</svg>
